<svg width="30" height="39" viewBox="0 0 30 39" fill="none" xmlns="http://www.w3.org/2000/svg">
<path fill-rule="evenodd" clip-rule="evenodd" d="M15 0C6.71619 0 0 6.71619 0 15C0 20.8927 3.39893 25.9791 8.33333 28.4311V30C8.33333 30.0006 8.33333 30.0012 8.33333 30.0018V33.3333C8.33333 36.0948 10.5719 38.3333 13.3333 38.3333H16.6667C19.4281 38.3333 21.6667 36.0948 21.6667 33.3333L21.6667 30V28.4311C26.6011 25.9791 30 20.8927 30 15C30 6.71619 23.2838 0 15 0ZM18.3333 28.3333V27.355C18.3333 26.6761 18.7451 26.065 19.3744 25.8102C23.6534 24.0773 26.6667 19.8914 26.6667 15C26.6667 8.55714 21.4429 3.33333 15 3.33333C8.55714 3.33333 3.33333 8.55714 3.33333 15C3.33333 19.8914 6.34663 24.0773 10.6256 25.8102C11.2549 26.065 11.6667 26.6761 11.6667 27.355V28.3308M11.6667 28.3333H18.3333ZM18.3333 31.6667H11.6667V33.3333C11.6667 34.2538 12.4129 35 13.3333 35H16.6667C17.5871 35 18.3333 34.2538 18.3333 33.3333V31.6667Z" fill="#F9995D"/>
<path fill-rule="evenodd" clip-rule="evenodd" d="M15 10.0001C12.2388 10.0001 10 12.2389 10 15.0001C10 15.9206 9.25381 16.6667 8.33334 16.6667C7.41286 16.6667 6.66667 15.9206 6.66667 15.0001C6.66667 10.3979 10.3979 6.66675 15 6.66675C15.9205 6.66675 16.6667 7.41294 16.6667 8.33341C16.6667 9.25389 15.9205 10.0001 15 10.0001Z" fill="#F9995D"/>
</svg>
