<svg width="40" height="40" viewBox="0 0 40 40" fill="none" xmlns="http://www.w3.org/2000/svg">
<path fill-rule="evenodd" clip-rule="evenodd" d="M19.2546 1.8427C19.7238 1.6081 20.2761 1.6081 20.7453 1.8427L37.412 10.176C37.9767 10.4584 38.3333 11.0355 38.3333 11.6667C38.3333 12.298 37.9767 12.8751 37.412 13.1575L20.7453 21.4908C20.2761 21.7254 19.7238 21.7254 19.2546 21.4908L2.58797 13.1575C2.02333 12.8751 1.66666 12.298 1.66666 11.6667C1.66666 11.0355 2.02333 10.4584 2.58797 10.176L19.2546 1.8427ZM7.0601 11.6667L20 18.1367L32.9399 11.6667L20 5.1968L7.0601 11.6667Z" fill="#F9995D"/>
<path fill-rule="evenodd" clip-rule="evenodd" d="M1.84261 27.5881C2.25426 26.7648 3.25538 26.4311 4.07868 26.8427L20 34.8034L35.9213 26.8427C36.7446 26.4311 37.7457 26.7648 38.1574 27.5881C38.569 28.4114 38.2353 29.4125 37.412 29.8241L20.7453 38.1575C20.2761 38.3921 19.7238 38.3921 19.2546 38.1575L2.58797 29.8241C1.76467 29.4125 1.43096 28.4114 1.84261 27.5881Z" fill="#F9995D"/>
<path fill-rule="evenodd" clip-rule="evenodd" d="M1.84261 19.2547C2.25426 18.4314 3.25538 18.0977 4.07868 18.5094L20 26.47L35.9213 18.5094C36.7446 18.0977 37.7457 18.4314 38.1574 19.2547C38.569 20.078 38.2353 21.0791 37.412 21.4908L20.7453 29.8241C20.2761 30.0587 19.7238 30.0587 19.2546 29.8241L2.58797 21.4908C1.76467 21.0791 1.43096 20.078 1.84261 19.2547Z" fill="#F9995D"/>
</svg>
